<svg width="32" height="32" viewBox="0 0 32 32" fill="none" xmlns="http://www.w3.org/2000/svg">
<path d="M32 14.6771C32 22.7831 24.8366 29.3543 16 29.3543C7.16344 29.3543 0 22.7831 0 14.6771C0 6.57118 7.16344 0 16 0C24.8366 0 32 6.57118 32 14.6771Z" fill="#2B2B2B"/>
<path fill-rule="evenodd" clip-rule="evenodd" d="M7.04001 5.61938C4.35353 7.85693 2.66666 11.0863 2.66666 14.6772C2.66666 18.268 4.35353 21.4974 7.04001 23.7349V5.61938Z" fill="#EE7800"/>
<path fill-rule="evenodd" clip-rule="evenodd" d="M24.1526 24.356C27.3042 22.119 29.3333 18.6154 29.3333 14.6771C29.3333 7.92218 23.3638 2.4462 16 2.4462C14.5672 2.4462 13.1872 2.65351 11.8936 3.03722L24.1526 24.356Z" fill="#0067C0"/>
<path fill-rule="evenodd" clip-rule="evenodd" d="M9.81332 4.51181V25.4626C11.6879 26.385 13.8307 26.9081 16.1067 26.9081C18.2578 26.9081 20.2899 26.4408 22.089 25.6109L9.81332 4.51181Z" fill="#4DB56A"/>
<rect x="7.04001" y="23.7769" width="2.66667" height="8.21919" fill="#2B2B2B"/>
<rect width="32.6659" height="2.61905" transform="matrix(0.504597 0.863355 -0.897348 0.441324 11.5235 2.64188)" fill="#2B2B2B"/>
</svg>
