<svg width="121" height="23" viewBox="0 0 121 23" fill="none" xmlns="http://www.w3.org/2000/svg">
<path d="M21 10.0905C21 15.6634 16.299 20.1811 10.5 20.1811C4.70101 20.1811 0 15.6634 0 10.0905C0 4.51768 4.70101 0 10.5 0C16.299 0 21 4.51768 21 10.0905Z" fill="#2B2B2B"/>
<path fill-rule="evenodd" clip-rule="evenodd" d="M4.62 3.86333C2.85701 5.40164 1.75 7.62185 1.75 10.0905C1.75 12.5592 2.85701 14.7794 4.62 16.3177V3.86333Z" fill="#EE7800"/>
<path fill-rule="evenodd" clip-rule="evenodd" d="M15.8502 16.7448C17.9184 15.2068 19.25 12.7981 19.25 10.0905C19.25 5.44649 15.3325 1.68176 10.5 1.68176C9.55973 1.68176 8.65409 1.82428 7.80521 2.08809L15.8502 16.7448Z" fill="#0067C0"/>
<path fill-rule="evenodd" clip-rule="evenodd" d="M6.43999 3.10192V17.5056C7.67015 18.1397 9.07638 18.4993 10.57 18.4993C11.9816 18.4993 13.3152 18.1781 14.4958 17.6075L6.43999 3.10192Z" fill="#4DB56A"/>
<rect x="4.62" y="16.3467" width="1.75" height="5.6507" fill="#2B2B2B"/>
<rect width="22.2023" height="1.735" transform="matrix(0.487202 0.873289 -0.888946 0.458011 7.56229 1.81622)" fill="#2B2B2B"/>
<path d="M39.38 10.72C39.38 12.32 39.08 13.66 38.48 14.74C37.8933 15.82 37.0467 16.6333 35.94 17.18C34.8333 17.7267 33.4933 18 31.92 18H27.94V3.72H32.34C33.78 3.72 35.0267 3.98667 36.08 4.52C37.1333 5.05333 37.9467 5.84 38.52 6.88C39.0933 7.90667 39.38 9.18667 39.38 10.72ZM37.48 10.78C37.48 9.51333 37.2667 8.47333 36.84 7.66C36.4267 6.84667 35.8133 6.24667 35 5.86C34.2 5.46 33.2267 5.26 32.08 5.26H29.74V16.46H31.68C33.6133 16.46 35.06 15.9867 36.02 15.04C36.9933 14.08 37.48 12.66 37.48 10.78ZM51.6294 12.62C51.6294 13.5133 51.5094 14.3067 51.2694 15C51.0427 15.68 50.7094 16.26 50.2694 16.74C49.8427 17.22 49.316 17.5867 48.6894 17.84C48.076 18.08 47.3894 18.2 46.6294 18.2C45.9227 18.2 45.2694 18.08 44.6694 17.84C44.0694 17.5867 43.5494 17.22 43.1094 16.74C42.6694 16.26 42.3227 15.68 42.0694 15C41.8294 14.3067 41.7094 13.5133 41.7094 12.62C41.7094 11.4333 41.9094 10.4333 42.3094 9.62C42.7094 8.79333 43.2827 8.16667 44.0294 7.74C44.776 7.3 45.6627 7.08 46.6894 7.08C47.6627 7.08 48.516 7.3 49.2494 7.74C49.996 8.16667 50.576 8.79333 50.9894 9.62C51.416 10.4333 51.6294 11.4333 51.6294 12.62ZM43.5294 12.62C43.5294 13.46 43.636 14.1933 43.8494 14.82C44.076 15.4333 44.4227 15.9067 44.8894 16.24C45.356 16.5733 45.9494 16.74 46.6694 16.74C47.3894 16.74 47.9827 16.5733 48.4494 16.24C48.916 15.9067 49.256 15.4333 49.4694 14.82C49.696 14.1933 49.8094 13.46 49.8094 12.62C49.8094 11.7667 49.696 11.04 49.4694 10.44C49.2427 9.84 48.896 9.38 48.4294 9.06C47.976 8.72667 47.3827 8.56 46.6494 8.56C45.556 8.56 44.7627 8.92 44.2694 9.64C43.776 10.36 43.5294 11.3533 43.5294 12.62ZM59.4188 7.08C59.6188 7.08 59.8321 7.09333 60.0588 7.12C60.2988 7.13333 60.5054 7.16 60.6788 7.2L60.4588 8.82C60.2854 8.78 60.0921 8.74667 59.8788 8.72C59.6788 8.69333 59.4854 8.68 59.2988 8.68C58.8854 8.68 58.4921 8.76667 58.1188 8.94C57.7454 9.11333 57.4121 9.36 57.1188 9.68C56.8254 9.98667 56.5921 10.36 56.4188 10.8C56.2588 11.24 56.1788 11.7333 56.1788 12.28V18H54.4188V7.28H55.8588L56.0588 9.24H56.1388C56.3654 8.84 56.6388 8.48 56.9588 8.16C57.2788 7.82667 57.6454 7.56667 58.0588 7.38C58.4721 7.18 58.9254 7.08 59.4188 7.08ZM66.3498 7.1C67.6565 7.1 68.6232 7.38667 69.2498 7.96C69.8765 8.53333 70.1898 9.44667 70.1898 10.7V18H68.9098L68.5698 16.48H68.4898C68.1832 16.8667 67.8632 17.1933 67.5298 17.46C67.2098 17.7133 66.8365 17.9 66.4098 18.02C65.9965 18.14 65.4898 18.2 64.8898 18.2C64.2498 18.2 63.6698 18.0867 63.1498 17.86C62.6432 17.6333 62.2432 17.2867 61.9498 16.82C61.6565 16.34 61.5098 15.74 61.5098 15.02C61.5098 13.9533 61.9298 13.1333 62.7698 12.56C63.6098 11.9733 64.9032 11.6533 66.6498 11.6L68.4698 11.54V10.9C68.4698 10.0067 68.2765 9.38667 67.8898 9.04C67.5032 8.69333 66.9565 8.52 66.2498 8.52C65.6898 8.52 65.1565 8.60667 64.6498 8.78C64.1432 8.94 63.6698 9.12667 63.2298 9.34L62.6898 8.02C63.1565 7.76667 63.7098 7.55333 64.3498 7.38C64.9898 7.19333 65.6565 7.1 66.3498 7.1ZM66.8698 12.82C65.5365 12.8733 64.6098 13.0867 64.0898 13.46C63.5832 13.8333 63.3298 14.36 63.3298 15.04C63.3298 15.64 63.5098 16.08 63.8698 16.36C64.2432 16.64 64.7165 16.78 65.2898 16.78C66.1965 16.78 66.9498 16.5333 67.5498 16.04C68.1498 15.5333 68.4498 14.76 68.4498 13.72V12.76L66.8698 12.82ZM77.4746 11.7598V13.1953H72.7188V11.7598H77.4746ZM84.4609 18.2C83.5143 18.2 82.6676 18.0067 81.9209 17.62C81.1876 17.2333 80.6076 16.6333 80.1809 15.82C79.7676 15.0067 79.5609 13.9667 79.5609 12.7C79.5609 11.38 79.7809 10.3067 80.2209 9.48C80.6609 8.65333 81.2543 8.04667 82.0009 7.66C82.7609 7.27333 83.6209 7.08 84.5809 7.08C85.1276 7.08 85.6543 7.14 86.1609 7.26C86.6676 7.36667 87.0809 7.5 87.4009 7.66L86.8609 9.12C86.5409 9 86.1676 8.88667 85.7409 8.78C85.3143 8.67333 84.9143 8.62 84.5409 8.62C83.8209 8.62 83.2276 8.77333 82.7609 9.08C82.2943 9.38667 81.9476 9.84 81.7209 10.44C81.4943 11.04 81.3809 11.7867 81.3809 12.68C81.3809 13.5333 81.4943 14.26 81.7209 14.86C81.9476 15.46 82.2876 15.9133 82.7409 16.22C83.1943 16.5267 83.7609 16.68 84.4409 16.68C85.0276 16.68 85.5409 16.62 85.9809 16.5C86.4343 16.38 86.8476 16.2333 87.2209 16.06V17.62C86.8609 17.8067 86.4609 17.9467 86.0209 18.04C85.5943 18.1467 85.0743 18.2 84.4609 18.2ZM99.0903 12.62C99.0903 13.5133 98.9703 14.3067 98.7303 15C98.5036 15.68 98.1703 16.26 97.7303 16.74C97.3036 17.22 96.777 17.5867 96.1503 17.84C95.537 18.08 94.8503 18.2 94.0903 18.2C93.3836 18.2 92.7303 18.08 92.1303 17.84C91.5303 17.5867 91.0103 17.22 90.5703 16.74C90.1303 16.26 89.7836 15.68 89.5303 15C89.2903 14.3067 89.1703 13.5133 89.1703 12.62C89.1703 11.4333 89.3703 10.4333 89.7703 9.62C90.1703 8.79333 90.7436 8.16667 91.4903 7.74C92.237 7.3 93.1236 7.08 94.1503 7.08C95.1236 7.08 95.977 7.3 96.7103 7.74C97.457 8.16667 98.037 8.79333 98.4503 9.62C98.877 10.4333 99.0903 11.4333 99.0903 12.62ZM90.9903 12.62C90.9903 13.46 91.097 14.1933 91.3103 14.82C91.537 15.4333 91.8836 15.9067 92.3503 16.24C92.817 16.5733 93.4103 16.74 94.1303 16.74C94.8503 16.74 95.4436 16.5733 95.9103 16.24C96.377 15.9067 96.717 15.4333 96.9303 14.82C97.157 14.1933 97.2703 13.46 97.2703 12.62C97.2703 11.7667 97.157 11.04 96.9303 10.44C96.7036 9.84 96.357 9.38 95.8903 9.06C95.437 8.72667 94.8436 8.56 94.1103 8.56C93.017 8.56 92.2236 8.92 91.7303 9.64C91.237 10.36 90.9903 11.3533 90.9903 12.62ZM106.88 7.08C107.08 7.08 107.293 7.09333 107.52 7.12C107.76 7.13333 107.966 7.16 108.14 7.2L107.92 8.82C107.746 8.78 107.553 8.74667 107.34 8.72C107.14 8.69333 106.946 8.68 106.76 8.68C106.346 8.68 105.953 8.76667 105.58 8.94C105.206 9.11333 104.873 9.36 104.58 9.68C104.286 9.98667 104.053 10.36 103.88 10.8C103.72 11.24 103.64 11.7333 103.64 12.28V18H101.88V7.28H103.32L103.52 9.24H103.6C103.826 8.84 104.1 8.48 104.42 8.16C104.74 7.82667 105.106 7.56667 105.52 7.38C105.933 7.18 106.386 7.08 106.88 7.08ZM115.241 7.08C116.561 7.08 117.621 7.54 118.421 8.46C119.235 9.38 119.641 10.7667 119.641 12.62C119.641 13.8333 119.455 14.86 119.081 15.7C118.721 16.5267 118.208 17.1533 117.541 17.58C116.888 17.9933 116.115 18.2 115.221 18.2C114.675 18.2 114.188 18.1267 113.761 17.98C113.335 17.8333 112.968 17.6467 112.661 17.42C112.368 17.18 112.115 16.92 111.901 16.64H111.781C111.808 16.8667 111.835 17.1533 111.861 17.5C111.888 17.8467 111.901 18.1467 111.901 18.4V22.8H110.141V7.28H111.581L111.821 8.74H111.901C112.115 8.43333 112.368 8.15333 112.661 7.9C112.968 7.64667 113.328 7.44667 113.741 7.3C114.168 7.15333 114.668 7.08 115.241 7.08ZM114.921 8.56C114.201 8.56 113.621 8.7 113.181 8.98C112.741 9.24667 112.421 9.65333 112.221 10.2C112.021 10.7467 111.915 11.44 111.901 12.28V12.62C111.901 13.5 111.995 14.2467 112.181 14.86C112.368 15.4733 112.681 15.94 113.121 16.26C113.575 16.58 114.188 16.74 114.961 16.74C115.615 16.74 116.148 16.56 116.561 16.2C116.988 15.84 117.301 15.3533 117.501 14.74C117.715 14.1133 117.821 13.4 117.821 12.6C117.821 11.3733 117.581 10.3933 117.101 9.66C116.635 8.92667 115.908 8.56 114.921 8.56Z" fill="#2B2B2B"/>
</svg>
